<?xml version="1.0" encoding="UTF-8" standalone="no"?>
<!DOCTYPE svg PUBLIC "-//W3C//DTD SVG 1.1//EN" "http://www.w3.org/Graphics/SVG/1.1/DTD/svg11.dtd">
<svg width="100%" height="100%" viewBox="0 0 20 20" version="1.1" xmlns="http://www.w3.org/2000/svg" xmlns:xlink="http://www.w3.org/1999/xlink" xml:space="preserve" xmlns:serif="http://www.serif.com/" style="fill-rule:evenodd;clip-rule:evenodd;stroke-linejoin:round;stroke-miterlimit:2;">
    <g transform="matrix(1,0,0,1,-2,-2)">
        <path d="M14,8L4,8C2.897,8 2,8.897 2,10L2,20C2,21.103 2.897,22 4,22L14,22C15.103,22 16,21.103 16,20L16,10C16,8.897 15.103,8 14,8Z" style="fill:rgb(128,128,128);fill-rule:nonzero;"/>
        <path d="M20,2L10,2C8.903,2 8,2.903 8,4L8,6L16,6C17.097,6 18,6.903 18,8L18,16L20,16C21.097,16 22,15.097 22,14L22,4C22,2.903 21.097,2 20,2Z" style="fill:rgb(128,128,128);fill-rule:nonzero;"/>
    </g>
</svg>
