<?xml version="1.0" encoding="UTF-8" standalone="no"?>
<!DOCTYPE svg PUBLIC "-//W3C//DTD SVG 1.1//EN" "http://www.w3.org/Graphics/SVG/1.1/DTD/svg11.dtd">
<svg width="100%" height="100%" viewBox="0 0 512 512" version="1.1" xmlns="http://www.w3.org/2000/svg" xmlns:xlink="http://www.w3.org/1999/xlink" xml:space="preserve" xmlns:serif="http://www.serif.com/" style="fill-rule:evenodd;clip-rule:evenodd;stroke-linejoin:round;stroke-miterlimit:2;">
    <path d="M282.3,343.7L248.1,376.1C244.5,381.5 238.4,384 232,384L192,384L192,424C192,437.3 181.3,448 168,448L128,448L128,488C128,501.3 117.3,512 104,512L24,512C10.75,512 0,501.3 0,488L0,408C0,401.6 2.529,395.5 7.029,391L168.3,229.7C162.9,212.8 160,194.7 160,176C160,78.8 238.8,0 336,0C433.2,0 512,78.8 512,176C512,273.2 433.2,352 336,352C317.3,352 299.2,349.1 282.3,343.7ZM376,176C398.1,176 416,158.1 416,136C416,113.9 398.1,96 376,96C353.9,96 336,113.9 336,136C336,158.1 353.9,176 376,176Z" style="fill:rgb(255,196,96);fill-rule:nonzero;"/>
</svg>
